<?xml version="1.0" encoding="UTF-8" standalone="no"?>
<svg
   xmlns:ooo="http://xml.openoffice.org/svg/export"
   xmlns:dc="http://purl.org/dc/elements/1.1/"
   xmlns:cc="http://creativecommons.org/ns#"
   xmlns:rdf="http://www.w3.org/1999/02/22-rdf-syntax-ns#"
   xmlns:svg="http://www.w3.org/2000/svg"
   xmlns="http://www.w3.org/2000/svg"
   xmlns:sodipodi="http://sodipodi.sourceforge.net/DTD/sodipodi-0.dtd"
   xmlns:inkscape="http://www.inkscape.org/namespaces/inkscape"
   version="1.2"
   width="40mm"
   height="40mm"
   viewBox="0 0 4000 4000"
   preserveAspectRatio="xMidYMid"
   fill-rule="evenodd"
   clip-path="url(#presentation_clip_path)"
   stroke-width="28.222"
   stroke-linejoin="round"
   xml:space="preserve"
   id="svg2"
   inkscape:version="0.91 r13725"
   sodipodi:docname="Icon.svg"
   inkscape:export-filename="C:\Users\hackenbe\Desktop\Lehrstuhl\imomesa\Implementierung\de.tum.imomesa\Icon.png"
   inkscape:export-xdpi="325.12"
   inkscape:export-ydpi="325.12"><metadata
     id="metadata131"><rdf:RDF><cc:Work
         rdf:about=""><dc:format>image/svg+xml</dc:format><dc:type
           rdf:resource="http://purl.org/dc/dcmitype/StillImage" /></cc:Work></rdf:RDF></metadata><sodipodi:namedview
     pagecolor="#ffffff"
     bordercolor="#666666"
     borderopacity="1"
     objecttolerance="10"
     gridtolerance="10"
     guidetolerance="10"
     inkscape:pageopacity="0"
     inkscape:pageshadow="2"
     inkscape:window-width="2048"
     inkscape:window-height="1091"
     id="namedview129"
     showgrid="false"
     inkscape:zoom="1.6651111"
     inkscape:cx="70.866142"
     inkscape:cy="70.866142"
     inkscape:window-x="-8"
     inkscape:window-y="-8"
     inkscape:window-maximized="1"
     inkscape:current-layer="svg2" /><defs
     class="ClipPathGroup"
     id="defs4"><clipPath
       id="presentation_clip_path"
       clipPathUnits="userSpaceOnUse"><rect
         x="0"
         y="0"
         width="4000"
         height="4000"
         id="rect7" /></clipPath></defs><defs
     class="TextShapeIndex"
     id="defs9"><g
       ooo:slide="id1"
       ooo:id-list="id3 id4 id5 id6 id7 id8 id9 id10"
       id="g11" /></defs><defs
     class="EmbeddedBulletChars"
     id="defs13"><g
       id="bullet-char-template(57356)"
       transform="scale(0.00048828125,-0.00048828125)"><path
         d="M 580,1141 L 1163,571 580,0 -4,571 580,1141 Z"
         id="path16" /></g><g
       id="bullet-char-template(57354)"
       transform="scale(0.00048828125,-0.00048828125)"><path
         d="M 8,1128 L 1137,1128 1137,0 8,0 8,1128 Z"
         id="path19" /></g><g
       id="bullet-char-template(10146)"
       transform="scale(0.00048828125,-0.00048828125)"><path
         d="M 174,0 L 602,739 174,1481 1456,739 174,0 Z M 1358,739 L 309,1346 659,739 1358,739 Z"
         id="path22" /></g><g
       id="bullet-char-template(10132)"
       transform="scale(0.00048828125,-0.00048828125)"><path
         d="M 2015,739 L 1276,0 717,0 1260,543 174,543 174,936 1260,936 717,1481 1274,1481 2015,739 Z"
         id="path25" /></g><g
       id="bullet-char-template(10007)"
       transform="scale(0.00048828125,-0.00048828125)"><path
         d="M 0,-2 C -7,14 -16,27 -25,37 L 356,567 C 262,823 215,952 215,954 215,979 228,992 255,992 264,992 276,990 289,987 310,991 331,999 354,1012 L 381,999 492,748 772,1049 836,1024 860,1049 C 881,1039 901,1025 922,1006 886,937 835,863 770,784 769,783 710,716 594,584 L 774,223 C 774,196 753,168 711,139 L 727,119 C 717,90 699,76 672,76 641,76 570,178 457,381 L 164,-76 C 142,-110 111,-127 72,-127 30,-127 9,-110 8,-76 1,-67 -2,-52 -2,-32 -2,-23 -1,-13 0,-2 Z"
         id="path28" /></g><g
       id="bullet-char-template(10004)"
       transform="scale(0.00048828125,-0.00048828125)"><path
         d="M 285,-33 C 182,-33 111,30 74,156 52,228 41,333 41,471 41,549 55,616 82,672 116,743 169,778 240,778 293,778 328,747 346,684 L 369,508 C 377,444 397,411 428,410 L 1163,1116 C 1174,1127 1196,1133 1229,1133 1271,1133 1292,1118 1292,1087 L 1292,965 C 1292,929 1282,901 1262,881 L 442,47 C 390,-6 338,-33 285,-33 Z"
         id="path31" /></g><g
       id="bullet-char-template(9679)"
       transform="scale(0.00048828125,-0.00048828125)"><path
         d="M 813,0 C 632,0 489,54 383,161 276,268 223,411 223,592 223,773 276,916 383,1023 489,1130 632,1184 813,1184 992,1184 1136,1130 1245,1023 1353,916 1407,772 1407,592 1407,412 1353,268 1245,161 1136,54 992,0 813,0 Z"
         id="path34" /></g><g
       id="bullet-char-template(8226)"
       transform="scale(0.00048828125,-0.00048828125)"><path
         d="M 346,457 C 273,457 209,483 155,535 101,586 74,649 74,723 74,796 101,859 155,911 209,963 273,989 346,989 419,989 480,963 531,910 582,859 608,796 608,723 608,648 583,586 532,535 482,483 420,457 346,457 Z"
         id="path37" /></g><g
       id="bullet-char-template(8211)"
       transform="scale(0.00048828125,-0.00048828125)"><path
         d="M -4,459 L 1135,459 1135,606 -4,606 -4,459 Z"
         id="path40" /></g></defs><defs
     class="TextEmbeddedBitmaps"
     id="defs42" /><g
     id="g44"><g
       id="id2"
       class="Master_Slide"><g
         id="bg-id2"
         class="Background" /><g
         id="bo-id2"
         class="BackgroundObjects" /></g></g><g
     class="SlideGroup"
     id="g49"><g
       id="g51"><g
         id="id1"
         class="Slide"
         clip-path="url(#presentation_clip_path)"><g
           class="Page"
           id="g54"><g
             class="com.sun.star.drawing.CustomShape"
             id="g56"><g
               id="id3"><g
                 id="g59"><defs
                   id="defs61"><linearGradient
                     id="gradient1"
                     x1="2000"
                     y1="500"
                     x2="2000"
                     y2="3501"
                     gradientUnits="userSpaceOnUse"><stop
                       offset="0"
                       style="stop-color:rgb(174,207,0)"
                       id="stop64" /><stop
                       offset="1"
                       style="stop-color:rgb(87,157,28)"
                       id="stop66" /></linearGradient></defs><path
                   style="fill:url(#gradient1)"
                   d="M 803,500 L 775,502 746,507 719,515 692,526 665,540 640,556 617,574 595,595 574,617 556,640 540,665 526,692 515,719 507,746 502,775 500,803 500,3197 502,3225 507,3254 515,3281 526,3309 540,3335 556,3360 574,3384 595,3406 617,3426 640,3445 665,3461 692,3475 719,3486 746,3494 775,3499 803,3501 3197,3501 3225,3499 3254,3494 3281,3486 3309,3475 3335,3461 3360,3445 3384,3426 3406,3406 3426,3384 3445,3360 3461,3335 3475,3309 3486,3281 3494,3254 3499,3225 3501,3197 3501,803 3499,775 3494,746 3486,719 3475,692 3461,665 3445,640 3426,617 3406,595 3384,574 3360,556 3335,540 3309,526 3281,515 3254,507 3225,502 3197,500 803,500 Z"
                   id="path68" /></g><path
                 fill="none"
                 stroke="rgb(0,0,0)"
                 stroke-width="100"
                 stroke-linejoin="round"
                 d="M 803,500 C 651,500 500,651 500,803 L 500,3197 C 500,3349 651,3501 803,3501 L 3197,3501 C 3349,3501 3501,3349 3501,3197 L 3501,803 C 3501,651 3349,500 3197,500 L 803,500 Z"
                 id="path70" /></g></g><g
             class="com.sun.star.drawing.CustomShape"
             id="g72"><g
               id="id4"><path
                 fill="rgb(255,255,255)"
                 stroke="none"
                 d="M 2000,250 C 2142,250 2250,358 2250,500 2250,642 2142,750 2000,750 1858,750 1750,642 1750,500 1750,358 1858,250 2000,250 Z M 1750,250 L 1750,250 Z M 2251,751 L 2251,751 Z"
                 id="path75" /><path
                 fill="none"
                 stroke="rgb(0,0,0)"
                 stroke-width="100"
                 stroke-linejoin="round"
                 d="M 2000,250 C 2142,250 2250,358 2250,500 2250,642 2142,750 2000,750 1858,750 1750,642 1750,500 1750,358 1858,250 2000,250 Z"
                 id="path77" /></g></g><g
             class="com.sun.star.drawing.CustomShape"
             id="g79"><g
               id="id5"><path
                 fill="rgb(255,255,255)"
                 stroke="none"
                 d="M 2000,3250 C 2142,3250 2250,3358 2250,3500 2250,3642 2142,3750 2000,3750 1858,3750 1750,3642 1750,3500 1750,3358 1858,3250 2000,3250 Z M 1750,3250 L 1750,3250 Z M 2251,3751 L 2251,3751 Z"
                 id="path82" /><path
                 fill="none"
                 stroke="rgb(0,0,0)"
                 stroke-width="100"
                 stroke-linejoin="round"
                 d="M 2000,3250 C 2142,3250 2250,3358 2250,3500 2250,3642 2142,3750 2000,3750 1858,3750 1750,3642 1750,3500 1750,3358 1858,3250 2000,3250 Z"
                 id="path84" /></g></g><g
             class="com.sun.star.drawing.CustomShape"
             id="g86"><g
               id="id6"><path
                 fill="rgb(255,255,255)"
                 stroke="none"
                 d="M 3125,2376 L 3125,1812 3312,1625 3876,1625 3876,2188 3688,2376 3125,2376 Z M 3125,1625 L 3125,1625 Z M 3876,2376 L 3876,2376 Z"
                 id="path89" /><path
                 fill="none"
                 stroke="rgb(0,0,0)"
                 stroke-width="100"
                 stroke-linejoin="round"
                 d="M 3125,2376 L 3125,1812 3312,1625 3876,1625 3876,2188 3688,2376 3125,2376 Z"
                 id="path91" /><path
                 fill="rgb(255,255,255)"
                 stroke="none"
                 d="M 3125,1812 L 3312,1625 3876,1625 3688,1812 3125,1812 Z M 3125,1625 L 3125,1625 Z M 3876,2376 L 3876,2376 Z"
                 id="path93" /><path
                 fill="none"
                 stroke="rgb(0,0,0)"
                 stroke-width="100"
                 stroke-linejoin="round"
                 d="M 3125,1812 L 3312,1625 3876,1625 3688,1812 3125,1812 Z"
                 id="path95" /><path
                 fill="rgb(204,204,204)"
                 stroke="none"
                 d="M 3688,2376 L 3688,1812 3876,1625 3876,2188 3688,2376 Z M 3125,1625 L 3125,1625 Z M 3876,2376 L 3876,2376 Z"
                 id="path97" /><path
                 fill="none"
                 stroke="rgb(0,0,0)"
                 stroke-width="100"
                 stroke-linejoin="round"
                 d="M 3688,2376 L 3688,1812 3876,1625 3876,2188 3688,2376 Z"
                 id="path99" /></g></g><g
             class="com.sun.star.drawing.CustomShape"
             id="g101"><g
               id="id7"><path
                 fill="rgb(255,255,255)"
                 stroke="none"
                 d="M 500,1750 C 642,1750 750,1858 750,2000 750,2142 642,2250 500,2250 358,2250 250,2142 250,2000 250,1858 358,1750 500,1750 Z M 250,1750 L 250,1750 Z M 751,2251 L 751,2251 Z"
                 id="path104" /><path
                 fill="none"
                 stroke="rgb(0,0,0)"
                 stroke-width="100"
                 stroke-linejoin="round"
                 d="M 500,1750 C 642,1750 750,1858 750,2000 750,2142 642,2250 500,2250 358,2250 250,2142 250,2000 250,1858 358,1750 500,1750 Z"
                 id="path106" /></g></g><g
             class="com.sun.star.drawing.CustomShape"
             id="g108"><g
               id="id8"><path
                 fill="rgb(255,255,255)"
                 stroke="none"
                 d="M 2000,1625 C 2354,1625 2625,1788 2625,2000 2625,2212 2354,2375 2000,2375 1646,2375 1375,2212 1375,2000 1375,1788 1646,1625 2000,1625 Z M 1375,1625 L 1375,1625 Z M 2626,2376 L 2626,2376 Z"
                 id="path111" /><path
                 fill="none"
                 stroke="rgb(0,0,0)"
                 stroke-width="100"
                 stroke-linejoin="round"
                 d="M 2000,1625 C 2354,1625 2625,1788 2625,2000 2625,2212 2354,2375 2000,2375 1646,2375 1375,2212 1375,2000 1375,1788 1646,1625 2000,1625 Z"
                 id="path113" /></g></g><g
             class="com.sun.star.drawing.ConnectorShape"
             id="g115"><g
               id="id9"><path
                 fill="none"
                 stroke="rgb(0,0,0)"
                 stroke-width="100"
                 stroke-linejoin="round"
                 d="M 1558,2266 C 1558,3256 2308,3250 2426,2482"
                 id="path118" /><path
                 fill="rgb(0,0,0)"
                 stroke="none"
                 d="M 2442,2266 L 2273,2493 2573,2516 2442,2266 Z"
                 id="path120" /></g></g><g
             class="com.sun.star.drawing.ConnectorShape"
             id="g122"><g
               id="id10"><path
                 fill="none"
                 stroke="rgb(0,0,0)"
                 stroke-width="100"
                 stroke-linejoin="round"
                 d="M 2442,1734 C 2442,746 1692,752 1574,1518"
                 id="path125" /><path
                 fill="rgb(0,0,0)"
                 stroke="none"
                 d="M 1558,1734 L 1727,1507 1428,1484 1558,1734 Z"
                 id="path127" /></g></g></g></g></g></g></svg>